# xmcd
# Track frame offsets:
# 150
# 19272
# 31140
# 48120
# 62087
# 82772
# 94920
# 114770
# 131470
# 145447
# 161990
# 177387
# 194235
# 210380
#
# Disc length: 2991 seconds
# Revision: 0
# Processed by: cddbd v1.4PL0 Copyright (c) Steve Scherf et al.
# Submitted via: VisiTrax 2.9.5.181 - For more info visit www.synapsa.com
#
DISCID=be0bad0e
DTITLE=Various Artist - Rounder 30th Anniversary
DYEAR=1900
DGENRE=
TTITLE0=Joe Ely - Me And Billy The Kid
TTITLE1=Slaid Cleaves - Life's Other Side
TTITLE2=Jimmie Dale Gilmore - One Endless Night
TTITLE3=Terri Hendrix - Goodtime Van
TTITLE4=Lynn Miles - Over You
TTITLE5=Carrie Newcomer - Sparrow
TTITLE6=Larry John McNally - Black Guitar
TTITLE7=Stevens Sisters - Walk On By
TTITLE8=Keith Whitley - Sad Songs And Waltzes
TTITLE9=Alison Krauss - Never Got Off The Ground
TTITLE10=Rhonda Vincent - When I Close My Eyes
TTITLE11=Cash Brothers - Nebraska
TTITLE12=Ray Wylie Hubbard - Three Days Straight
TTITLE13=Dale Watson - Turn Off The Jukebox
EXTD=CRSCD 807 - Exclusive Compilation for HMV
EXTT0=
EXTT1=
EXTT2=
EXTT3=
EXTT4=
EXTT5=
EXTT6=
EXTT7=
EXTT8=
EXTT9=
EXTT10=
EXTT11=
EXTT12=
EXTT13=
PLAYORDER=
